<svg width="64" height="64" viewBox="0 0 64 64" fill="none" xmlns="http://www.w3.org/2000/svg">
<path fill-rule="evenodd" clip-rule="evenodd" d="M32 2.2069C15.5457 2.2069 2.2069 15.5457 2.2069 32C2.2069 48.4543 15.5457 61.7931 32 61.7931C48.4543 61.7931 61.7931 48.4543 61.7931 32C61.7931 15.5457 48.4543 2.2069 32 2.2069ZM0 32C0 14.3269 14.3269 0 32 0C49.6731 0 64 14.3269 64 32C64 49.6731 49.6731 64 32 64C14.3269 64 0 49.6731 0 32ZM32 9.56322C19.6085 9.56322 9.56322 19.6085 9.56322 32C9.56322 44.3915 19.6085 54.4368 32 54.4368C44.3915 54.4368 54.4368 44.3915 54.4368 32C54.4368 19.6085 44.3915 9.56322 32 9.56322ZM7.35632 32C7.35632 18.3897 18.3897 7.35632 32 7.35632C45.6103 7.35632 56.6437 18.3897 56.6437 32C56.6437 45.6103 45.6103 56.6437 32 56.6437C18.3897 56.6437 7.35632 45.6103 7.35632 32ZM30.8966 12.8736V15.8161H33.1034V12.8736H30.8966ZM30.8966 51.1264V48.1839H33.1034V51.1264H30.8966ZM50.7586 30.5287H48.5517V33.4713H50.7586V30.5287ZM13.2414 30.5287H15.4483V33.4713H13.2414V30.5287ZM30.8966 18.7586V32C30.8966 32.6094 31.3906 33.1034 32 33.1034H40.8276V30.8966H33.1034V18.7586H30.8966Z" fill="white"/>
</svg>
