<svg width="64" height="64" viewBox="0 0 64 64" fill="none" xmlns="http://www.w3.org/2000/svg">
<path fill-rule="evenodd" clip-rule="evenodd" d="M5.50306 0.000114204H58.7122H58.7124C59.4159 0.000217732 60.1123 0.15847 60.7609 0.465598C61.4094 0.772727 61.9971 1.22256 62.4894 1.78875C62.9817 2.35495 63.3688 3.02612 63.6279 3.76295C63.8857 4.49574 64.0118 5.27883 63.999 6.06684V43.3082C64.0126 44.0975 63.8877 44.8822 63.6313 45.617C63.3734 46.3562 62.9877 47.0302 62.4966 47.6C62.0054 48.1697 61.4187 48.6238 60.7704 48.9359C60.1222 49.2479 59.4253 49.4117 58.7204 49.4177L58.7122 49.4178H55.3699V62.7848V64H54.2913H31.2804H30.2018V62.7848V49.4178H5.4996H5.49947C4.05983 49.4176 2.67762 48.7816 1.64949 47.6463C0.621362 46.5109 0.0292464 44.9668 0.000219449 43.3452L0 43.333V43.3207V6.05499V6.04167L0.000259224 6.02836C0.0317433 4.41025 0.626917 2.87103 1.65724 1.74313C2.68663 0.616231 4.06785 -0.00972248 5.50306 0.000114204ZM58.7078 46.9874H55.3699V41.7216V40.5064H54.2913H51.0554V33.6203C51.0554 31.1494 50.1841 28.7798 48.6333 27.0326C47.0825 25.2854 44.9791 24.3039 42.7858 24.3039C40.5926 24.3039 38.4892 25.2854 36.9384 27.0326C35.3876 28.7798 34.5163 31.1494 34.5163 33.6203V40.5064H31.2804H30.2018V41.7216V46.9874H5.49973H5.4996C4.62457 46.9872 3.78446 46.6006 3.15955 45.9106C2.53702 45.2232 2.17747 44.2891 2.15727 43.3076V20.2532H61.8417V43.3207V43.334L61.842 43.3472C61.8511 43.8192 61.7768 44.2885 61.6235 44.728C61.4702 45.1674 61.2409 45.5681 60.949 45.9068C60.657 46.2455 60.3082 46.5154 59.9228 46.701C59.5386 46.8859 59.1256 46.9833 58.7078 46.9874ZM48.8981 40.5064V33.6203C48.8981 31.794 48.2541 30.0425 47.1079 28.7511C45.9616 27.4597 44.4069 26.7342 42.7858 26.7342C41.1648 26.7342 39.6101 27.4597 38.4638 28.7511C37.3176 30.0425 36.6736 31.794 36.6736 33.6203V40.5064H48.8981ZM34.5163 42.9367L32.359 42.9367V61.5696H53.2127V42.9367L51.0554 42.9367H49.9767H35.5949H34.5163ZM2.15727 17.8229H61.8417V10.5317H2.15727V17.8229ZM61.8417 6.05499V8.10137H2.15727V6.06924C2.17912 5.09372 2.53919 4.16642 3.16061 3.48615C3.78465 2.803 4.62217 2.42381 5.49228 2.43046V2.43049H5.4996H58.7121H58.7122C59.1287 2.43057 59.541 2.52427 59.9249 2.70608C60.3089 2.88792 60.6568 3.15425 60.9483 3.48947C61.2398 3.82468 61.469 4.22206 61.6224 4.65831C61.7758 5.09456 61.8505 5.56093 61.842 6.03008L61.8417 6.04253V6.05499ZM14.0223 26.7342H5.39317V24.3039H14.0223V26.7342ZM16.8986 26.7342H25.5277V24.3039H16.8986V26.7342Z" fill="white"/>
</svg>
