<svg width="64" height="64" viewBox="0 0 64 64" fill="none" xmlns="http://www.w3.org/2000/svg">
<g clip-path="url(#clip0)">
<path d="M45.0542 10.1613L49.0128 14.1404" stroke="white" stroke-width="3" stroke-miterlimit="10"/>
<path d="M47.1064 12.3174C47.6536 11.1021 48.4818 10.0358 49.522 9.20743C50.5622 8.37905 51.7842 7.81257 53.0864 7.55516C54.3885 7.29775 55.733 7.35687 57.0078 7.7276C58.2826 8.09834 59.4508 8.76994 60.4151 9.68646C61.3793 10.603 62.1117 11.7379 62.5512 12.9966C62.9906 14.2552 63.1245 15.6013 62.9416 16.9225C62.7586 18.2437 62.2642 19.5018 61.4995 20.5921C60.7348 21.6823 59.722 22.5731 58.5454 23.1901C57.3573 23.8168 56.0345 24.1413 54.6927 24.135" stroke="white" stroke-width="3" stroke-miterlimit="10"/>
<path d="M25.1949 22.1387H23.8709C22.4085 22.1387 21.223 23.3304 21.223 24.8004V26.1312C21.223 27.6012 22.4085 28.7928 23.8709 28.7928H25.1949C26.6573 28.7928 27.8428 27.6012 27.8428 26.1312V24.8004C27.8428 23.3304 26.6573 22.1387 25.1949 22.1387Z" stroke="white" stroke-width="3" stroke-miterlimit="10"/>
<path d="M37.1104 31.4543H35.7865C34.3241 31.4543 33.1385 32.646 33.1385 34.116V35.4468C33.1385 36.9168 34.3241 38.1084 35.7865 38.1084H37.1104C38.5728 38.1084 39.7583 36.9168 39.7583 35.4468V34.116C39.7583 32.646 38.5728 31.4543 37.1104 31.4543Z" stroke="white" stroke-width="3" stroke-miterlimit="10"/>
<path d="M25.1948 39.4392L35.7865 20.8078" stroke="white" stroke-width="3" stroke-miterlimit="10"/>
<path d="M49.0658 6.18231L47.477 4.8515H33.0459C32.5 4.79101 31.9475 4.84239 31.4218 5.0025C30.8962 5.16261 30.4083 5.42815 29.9876 5.78308L9.12206 26.6103L5.32229 30.4297L4.42201 31.3347L1.44312 34.3157L4.35581 37.3766L4.72652 37.7492L7.98346 41.023L18.7075 51.776L25.645 58.7494L29.7757 54.6771L54.4146 29.9639C55.2155 29.1393 55.6583 28.0289 55.6458 26.8764V12.344L53.6599 10.574" stroke="white" stroke-width="3" stroke-miterlimit="10"/>
</g>
<defs>
<clipPath id="clip0">
<rect width="64" height="64" fill="white"/>
</clipPath>
</defs>
</svg>
